<svg xmlns="http://www.w3.org/2000/svg" xmlns:xlink="http://www.w3.org/1999/xlink" version="1.1" data-diagram-type="DESCRIPTION" style="width:1020px;height:1031px;background:#FFFFFF;" width="1020px" height="1031px" viewBox="0 0 1020 1031" zoomAndPan="magnify" preserveAspectRatio="none" contentStyleType="text/css"><?plantuml 1.2026.8?><defs/><g font-family="sans-serif" lengthAdjust="spacing"><g class="title" data-source-line="2"><text x="370.289" y="23.07" fill="#000" font-size="14" textLength="273.314" font-weight="700" font-family="'Times New Roman'">Architecture globale de la plateforme G-ROD</text></g><!--cluster Navigateur--><g class="cluster" data-qualified-name="Navigateur" id="ent0003" data-source-line="19"><path d="M16.5,177.099 L84.376,177.099 A3.75,3.75 0 0 1 86.876,179.599 L93.876,199.197 L323.5,199.197 A2.5,2.5 0 0 1 326,201.697 L326,441.599 A2.5,2.5 0 0 1 323.5,444.099 L16.5,444.099 A2.5,2.5 0 0 1 14,441.599 L14,179.599 A2.5,2.5 0 0 1 16.5,177.099" style="stroke:#315344;stroke-width:1.5;" fill="#F6F8F5"/><line x1="14" y1="199.197" x2="93.876" y2="199.197" style="stroke:#315344;stroke-width:1.5;"/><text x="18" y="192.169" fill="#000" font-size="14" textLength="66.876" font-weight="700" font-family="'Times New Roman'">Navigateur</text></g><!--cluster Serveur cible\n(déploiement préparé)--><g class="cluster" data-qualified-name="Serveur cible.n.d.ploiement pr.par.." id="ent0008" data-source-line="26"><polygon points="342,310.099,352,300.099,715,300.099,715,997.099,705,1007.099,342,1007.099,342,310.099" fill="#F6F8F5" style="stroke:#315344;stroke-width:1;stroke-linejoin:miter;stroke-miterlimit:10;"/><line x1="705" y1="310.099" x2="715" y2="300.099" style="stroke:#315344;stroke-width:1;"/><line x1="342" y1="310.099" x2="705" y2="310.099" style="stroke:#315344;stroke-width:1;"/><line x1="705" y1="310.099" x2="705" y2="1007.099" style="stroke:#315344;stroke-width:1;"/><text x="485.04" y="326.169" fill="#000" font-size="14" textLength="78.921" font-weight="700" font-family="'Times New Roman'">Serveur cible</text><text x="457.822" y="342.268" fill="#000" font-size="14" textLength="133.355" font-weight="700" font-family="'Times New Roman'">(déploiement préparé)</text></g><!--cluster Services optionnels--><g class="cluster" data-qualified-name="Services optionnels" id="ent0017" data-source-line="37"><path d="M742.335,818.282 C746.833,809.883 754.249,810.52 759.054,817.957 C762.386,808.293 769.9,806.723 776.547,814.662 C782.819,805.273 791.099,805.83 796.379,815.683 C800.806,806.326 809.47,806.073 815.741,813.564 C819.953,806.376 825.807,803.752 831.824,811.638 C837.067,802.866 845.342,803.212 850.898,811.283 C854.856,802.927 862.788,801.742 868.552,809.277 C874.763,801.168 884.556,802.397 888.065,812.219 C892.841,801.984 901.741,803.109 907.389,811.305 C912.322,802.857 920.119,805.875 923.584,812.847 C930.381,804.119 937.439,804.694 942.575,814.545 C949.263,807.127 957.738,807.443 961.799,817.444 C968.763,809.792 974.387,810.839 980.123,818.878 C986.259,810.54 993.859,811.074 998.744,820.211 C1008.22,824.565 1009.107,830.532 1001.799,837.802 C1011.87,841.811 1013.877,851.364 1006.457,859.184 C1014.893,866.925 1013.049,873.631 1002.681,877.494 C1011.076,885.948 1009.357,893.864 998.291,898.189 C991.362,907.08 984.102,905.197 978.639,896.547 C975.782,903.702 968.106,905.886 962.946,899.149 C958.45,907.015 949.962,906.744 945.042,899.657 C939.01,909.628 930.504,909.886 923.925,900.247 C917.648,908.642 911.654,906.458 907.389,898.244 C903.086,908.223 895.803,908.263 889.6,900.108 C884.579,907.672 875.167,907.665 870.491,899.684 C865.262,909.181 855.909,907.935 851.627,898.728 C847.128,909.063 837.425,906.951 832.357,899.339 C827.602,909.168 821.366,908.157 815.217,900.722 C808.925,909.772 802.351,907.833 796.624,900.097 C791.73,909.208 782.07,908.641 776.973,900.327 C770.975,906.553 762.902,905.543 760.192,896.672 C755.234,906.512 748.272,906.62 740.867,899.453 C730.057,895.402 726.717,887.756 735.322,878.553 C725.605,876.441 720.448,867.832 728.209,859.272 C720.204,849.322 722.153,839.783 736.076,837.907 C729.698,828.5 730.585,821.908 742.335,818.282" style="stroke:#315344;stroke-width:1;" fill="#F6F8F5"/><text x="811.029" y="835.169" fill="#000" font-size="14" textLength="113.941" font-weight="700" font-family="'Times New Roman'">Services optionnels</text></g><!--entity Visitor--><g class="entity" data-qualified-name="Visitor" id="ent0001" data-source-line="16"><ellipse cx="96.247" cy="49.599" rx="8" ry="8" fill="#F1F1F1" style="stroke:#181818;stroke-width:0.5;"/><path d="M96.247,57.599 L96.247,84.599 M83.247,65.599 L109.247,65.599 M96.247,84.599 L83.247,99.599 M96.247,84.599 L109.247,99.599" style="stroke:#181818;stroke-width:0.5;" fill="none"/><text x="70" y="114.169" fill="#000" font-size="14" textLength="52.493" font-family="'Times New Roman'">Visiteur /</text><text x="70" y="130.268" fill="#000" font-size="14" textLength="48.214" font-family="'Times New Roman'">Prospect</text></g><!--entity Admin--><g class="entity" data-qualified-name="Admin" id="ent0002" data-source-line="17"><ellipse cx="240.879" cy="57.599" rx="8" ry="8" fill="#F1F1F1" style="stroke:#181818;stroke-width:0.5;"/><path d="M240.879,65.599 L240.879,92.599 M227.879,73.599 L253.879,73.599 M240.879,92.599 L227.879,107.599 M240.879,92.599 L253.879,107.599" style="stroke:#181818;stroke-width:0.5;" fill="none"/><text x="198.5" y="122.169" fill="#000" font-size="14" textLength="84.759" font-family="'Times New Roman'">Administrateur</text></g><g class="entity" data-qualified-name="GMN39" id="ent0040" data-source-line="63"><path d="M735,374.599 L735,398.099 L576.281,402.099 L735,406.099 L735,429.445 A0,0 0 0 0 735,429.445 L948.804,429.445 A0,0 0 0 0 948.804,429.445 L948.804,384.599 L938.804,374.599 L735,374.599 A0,0 0 0 0 735,374.599" style="stroke:#181818;stroke-width:0.5;" fill="#FFF8E8"/><path d="M938.804,374.599 L938.804,384.599 L948.804,384.599 L938.804,374.599" style="stroke:#181818;stroke-width:0.5;" fill="#FFF8E8"/><text x="741" y="391.735" fill="#000" font-size="13" textLength="192.804" font-family="'Times New Roman'">Nginx, TLS et systemd sont préparés</text><text x="741" y="406.684" fill="#000" font-size="13" textLength="189.154" font-family="'Times New Roman'">dans le dépôt ; leur déploiement réel</text><text x="741" y="421.633" fill="#000" font-size="13" textLength="159.726" font-family="'Times New Roman'">n'est pas démontré par le code.</text></g><g class="entity" data-qualified-name="GMN42" id="ent0043" data-source-line="69"><path d="M106.5,490.099 L106.5,529.996 A0,0 0 0 0 106.5,529.996 L321.338,529.996 A0,0 0 0 0 321.338,529.996 L321.338,500.099 L311.338,490.099 L225.223,490.099 L247.573,420.129 L217.223,490.099 L106.5,490.099 A0,0 0 0 0 106.5,490.099" style="stroke:#181818;stroke-width:0.5;" fill="#FFF8E8"/><path d="M311.338,490.099 L311.338,500.099 L321.338,500.099 L311.338,490.099" style="stroke:#181818;stroke-width:0.5;" fill="#FFF8E8"/><text x="112.5" y="507.235" fill="#000" font-size="13" textLength="193.838" font-family="'Times New Roman'">Manifeste et service worker présents.</text><text x="112.5" y="522.184" fill="#000" font-size="13" textLength="187.002" font-family="'Times New Roman'">Le mode hors ligne reste incomplet.</text></g><!--entity PublicUI--><g class="entity" data-qualified-name="Navigateur.PublicUI" id="ent0004" data-source-line="20"><rect x="38" y="220.099" width="115.642" height="36.099" fill="#FFF" style="stroke:#181818;stroke-width:0.5;" rx="2.5" ry="2.5"/><text x="48" y="243.169" fill="#000" font-size="14" textLength="95.642" font-family="'Times New Roman'">Site public React</text></g><!--entity AdminUI--><g class="entity" data-qualified-name="Navigateur.AdminUI" id="ent0005" data-source-line="21"><rect x="172.5" y="220.099" width="137.4" height="36.099" fill="#FFF" style="stroke:#181818;stroke-width:0.5;" rx="2.5" ry="2.5"/><text x="182.5" y="243.169" fill="#000" font-size="14" textLength="117.4" font-family="'Times New Roman'">Espace Admin React</text></g><!--entity PWA--><g class="entity" data-qualified-name="Navigateur.PWA" id="ent0006" data-source-line="22"><rect x="198" y="384.099" width="112.148" height="36.099" fill="#FFF" style="stroke:#181818;stroke-width:0.5;" rx="2.5" ry="2.5"/><text x="208" y="407.169" fill="#000" font-size="14" textLength="92.148" font-family="'Times New Roman'">PWA installable</text></g><!--entity Viewer3D--><g class="entity" data-qualified-name="Navigateur.Viewer3D" id="ent0007" data-source-line="23"><rect x="30" y="376.099" width="150.368" height="52.197" fill="#FFF" style="stroke:#181818;stroke-width:0.5;" rx="2.5" ry="2.5"/><text x="40" y="399.169" fill="#000" font-size="14" textLength="112.745" font-family="'Times New Roman'">Visualiseur Three.js</text><text x="40" y="415.268" fill="#000" font-size="14" textLength="130.368" font-family="'Times New Roman'">+ modèles GLB locaux</text></g><!--entity Nginx--><g class="entity" data-qualified-name="Serveur cible.n.d.ploiement pr.par...Nginx" id="ent0009" data-source-line="27"><rect x="404" y="368.099" width="172.154" height="68.296" fill="#FFF" style="stroke:#181818;stroke-width:0.5;" rx="2.5" ry="2.5"/><text x="414" y="391.169" fill="#000" font-size="14" textLength="35" font-family="'Times New Roman'">Nginx</text><text x="414" y="407.268" fill="#000" font-size="14" textLength="152.154" font-family="'Times New Roman'">HTTPS + fichiers statiques</text><text x="414" y="423.366" fill="#000" font-size="14" textLength="87.972" font-family="'Times New Roman'">+ reverse proxy</text></g><!--entity API--><g class="entity" data-qualified-name="Serveur cible.n.d.ploiement pr.par...API" id="ent0010" data-source-line="28"><rect x="469.5" y="492.099" width="152.624" height="36.099" fill="#FFF" style="stroke:#181818;stroke-width:0.5;" rx="2.5" ry="2.5"/><text x="479.5" y="515.169" fill="#000" font-size="14" textLength="132.624" font-family="'Times New Roman'">API Spring Boot 3.5.14</text></g><!--entity Security--><g class="entity" data-qualified-name="Serveur cible.n.d.ploiement pr.par...Security" id="ent0011" data-source-line="29"><rect x="521.5" y="567.099" width="154.805" height="52.197" fill="#FFF" style="stroke:#181818;stroke-width:0.5;" rx="2.5" ry="2.5"/><text x="531.5" y="590.169" fill="#000" font-size="14" textLength="87.493" font-family="'Times New Roman'">Spring Security</text><text x="531.5" y="606.268" fill="#000" font-size="14" textLength="134.805" font-family="'Times New Roman'">JWT + BCrypt + CORS</text></g><!--entity Controllers--><g class="entity" data-qualified-name="Serveur cible.n.d.ploiement pr.par...Controllers" id="ent0012" data-source-line="30"><rect x="552" y="656.099" width="123.831" height="36.099" fill="#FFF" style="stroke:#181818;stroke-width:0.5;" rx="2.5" ry="2.5"/><text x="562" y="679.169" fill="#000" font-size="14" textLength="103.831" font-family="'Times New Roman'">Contrôleurs REST</text></g><!--entity Services--><g class="entity" data-qualified-name="Serveur cible.n.d.ploiement pr.par...Services" id="ent0013" data-source-line="31"><rect x="578.5" y="729.099" width="106.687" height="36.099" fill="#FFF" style="stroke:#181818;stroke-width:0.5;" rx="2.5" ry="2.5"/><text x="588.5" y="752.169" fill="#000" font-size="14" textLength="86.687" font-family="'Times New Roman'">Services métier</text></g><!--entity Repositories--><g class="entity" data-qualified-name="Serveur cible.n.d.ploiement pr.par...Repositories" id="ent0014" data-source-line="32"><rect x="362.5" y="852.099" width="116.838" height="36.099" fill="#FFF" style="stroke:#181818;stroke-width:0.5;" rx="2.5" ry="2.5"/><text x="372.5" y="875.169" fill="#000" font-size="14" textLength="96.838" font-family="'Times New Roman'">Repositories JPA</text></g><!--entity MySQL--><g class="entity" data-qualified-name="Serveur cible.n.d.ploiement pr.par...MySQL" id="ent0015" data-source-line="33"><path d="M388,952.099 C388,942.099 420.948,942.099 420.948,942.099 C420.948,942.099 453.896,942.099 453.896,952.099 L453.896,977.197 C453.896,987.197 420.948,987.197 420.948,987.197 C420.948,987.197 388,987.197 388,977.197 L388,952.099" style="stroke:#181818;stroke-width:0.5;" fill="#EEF6F1"/><path d="M388,952.099 C388,962.099 420.948,962.099 420.948,962.099 C420.948,962.099 453.896,962.099 453.896,952.099" style="stroke:#181818;stroke-width:0.5;" fill="none"/><text x="398" y="979.169" fill="#000" font-size="14" textLength="45.896" font-family="'Times New Roman'">MySQL</text></g><!--entity Uploads--><g class="entity" data-qualified-name="Serveur cible.n.d.ploiement pr.par...Uploads" id="ent0016" data-source-line="34"><path d="M500,835.099 L541,835.099 A3.75,3.75 0 0 1 543.5,837.599 L550.5,856.099 L692.2,856.099 A2.5,2.5 0 0 1 694.7,858.599 L694.7,902.796 A2.5,2.5 0 0 1 692.2,905.296 L500,905.296 A2.5,2.5 0 0 1 497.5,902.796 L497.5,837.599 A2.5,2.5 0 0 1 500,835.099" style="stroke:#181818;stroke-width:0.5;" fill="#F1F1F1"/><line x1="497.5" y1="856.099" x2="550.5" y2="856.099" style="stroke:#181818;stroke-width:0.5;"/><text x="507.5" y="876.169" fill="#000" font-size="14" textLength="87.89" font-family="'Times New Roman'">UPLOAD_DIR</text><text x="507.5" y="892.268" fill="#000" font-size="14" textLength="167.2" font-family="'Times New Roman'">products / quotes / documents</text></g><!--entity SMTP--><g class="entity" data-qualified-name="Services optionnels.SMTP" id="ent0018" data-source-line="38"><rect x="931.5" y="852.099" width="56.572" height="36.099" fill="#FFF" style="stroke:#181818;stroke-width:0.5;" rx="2.5" ry="2.5"/><text x="941.5" y="875.169" fill="#000" font-size="14" textLength="36.572" font-family="'Times New Roman'">SMTP</text></g><!--entity Twilio--><g class="entity" data-qualified-name="Services optionnels.Twilio" id="ent0019" data-source-line="39"><rect x="747.5" y="852.099" width="57.331" height="36.099" fill="#FFF" style="stroke:#181818;stroke-width:0.5;" rx="2.5" ry="2.5"/><text x="757.5" y="875.169" fill="#000" font-size="14" textLength="37.331" font-family="'Times New Roman'">Twilio</text></g><!--entity OpenAI--><g class="entity" data-qualified-name="Services optionnels.OpenAI" id="ent0020" data-source-line="40"><rect x="822.5" y="852.099" width="91.155" height="36.099" fill="#FFF" style="stroke:#181818;stroke-width:0.5;" rx="2.5" ry="2.5"/><text x="832.5" y="875.169" fill="#000" font-size="14" textLength="71.155" font-family="'Times New Roman'">API OpenAI</text></g><g class="link" data-entity-1="ent0001" data-entity-2="ent0004" id="lnk21" data-link-type="dependency"><polygon points="96,220.033,100,211.033,96,215.033,92,211.033,96,220.033" fill="#17633B" style="stroke:#17633B;stroke-width:1;stroke-linejoin:miter;stroke-miterlimit:10;"/><path d="M96,133.208 C96,162.501 96,194.015 96,215.033" style="stroke:#17633B;stroke-width:1;" fill="none"/><text x="98" y="165.235" fill="#000" font-size="13" textLength="109.015" font-family="'Times New Roman'">consulter / demander</text></g><g class="link" data-entity-1="ent0002" data-entity-2="ent0005" id="lnk22" data-link-type="dependency"><polygon points="241,220.061,245,211.061,241,215.061,237,211.061,241,220.061" fill="#17633B" style="stroke:#17633B;stroke-width:1;stroke-linejoin:miter;stroke-miterlimit:10;"/><path d="M241,125.313 C241,155.655 241,192.113 241,215.061" style="stroke:#17633B;stroke-width:1;" fill="none"/><text x="243" y="165.235" fill="#000" font-size="13" textLength="59.205" font-family="'Times New Roman'">administrer</text></g><g class="link" data-entity-1="ent0004" data-entity-2="ent0007" id="lnk23" data-link-type="dependency"><polygon points="92.524,375.858,92.395,366.01,90.434,371.316,85.128,369.355,92.524,375.858" fill="#17633B" style="stroke:#17633B;stroke-width:1;stroke-linejoin:miter;stroke-miterlimit:10;"/><path d="M75.798,256.171 C71.015,261.382 66.563,267.498 64,274.099 C61.105,281.556 62.569,284.228 64,292.099 C69.426,321.936 80.479,349.688 90.434,371.316" style="stroke:#17633B;stroke-width:1;" fill="none"/><text x="66" y="288.235" fill="#000" font-size="13" textLength="79.409" font-family="'Times New Roman'">clic Aperçu 3D</text></g><g class="link" data-entity-1="ent0004" data-entity-2="ent0006" id="lnk24" data-link-type="dependency"><polygon points="247.208,383.942,247.301,374.093,245.22,379.354,239.96,377.273,247.208,383.942" fill="#17633B" style="stroke:#17633B;stroke-width:1;stroke-linejoin:miter;stroke-miterlimit:10;"/><path d="M122.515,256.139 C130.57,261.62 139.317,267.887 147,274.099 C156.046,281.412 156.062,286.053 166,292.099 C175.246,297.724 180.496,293.405 189,300.099 C217.674,322.669 235.532,356.991 245.22,379.354" style="stroke:#17633B;stroke-width:1;" fill="none"/><text x="168" y="288.235" fill="#000" font-size="13" textLength="115.883" font-family="'Times New Roman'">installation navigateur</text></g><g class="link" data-entity-1="ent0005" data-entity-2="ent0006" id="lnk25" data-link-type="dependency"><polygon points="266.356,383.868,274.621,378.512,269.086,379.679,267.919,374.144,266.356,383.868" fill="#17633B" style="stroke:#17633B;stroke-width:1;stroke-linejoin:miter;stroke-miterlimit:10;"/><path d="M273.552,256.313 C279.774,261.189 285.448,267.112 289,274.099 C307.658,310.795 285.505,354.485 269.086,379.679" style="stroke:#17633B;stroke-width:1;" fill="none"/></g><g class="link" data-entity-1="ent0004" data-entity-2="ent0009" id="lnk26" data-link-type="dependency"><polygon points="449.24,367.999,444.517,359.356,445.267,364.963,439.66,365.713,449.24,367.999" fill="#17633B" style="stroke:#17633B;stroke-width:1;stroke-linejoin:miter;stroke-miterlimit:10;"/><path d="M154.019,254.223 C157.05,254.886 160.057,255.517 163,256.099 C218.494,267.07 235.914,254.558 289,274.099 C349.236,296.271 406.483,335.33 445.267,364.963" style="stroke:#17633B;stroke-width:1;" fill="none"/><text x="327" y="288.235" fill="#000" font-size="13" textLength="39.73" font-family="'Times New Roman'">HTTPS</text></g><g class="link" data-entity-1="ent0005" data-entity-2="ent0009" id="lnk27" data-link-type="dependency"><polygon points="479.995,367.844,480.699,358.02,478.296,363.141,473.175,360.738,479.995,367.844" fill="#17633B" style="stroke:#17633B;stroke-width:1;stroke-linejoin:miter;stroke-miterlimit:10;"/><path d="M309.828,246.743 C351.853,252.535 400.728,261.633 418,274.099 C449.753,297.015 467.705,333.825 478.296,363.141" style="stroke:#17633B;stroke-width:1;" fill="none"/><text x="438" y="288.235" fill="#000" font-size="13" textLength="116.721" font-family="'Times New Roman'">HTTPS + Bearer JWT</text></g><g class="link" data-entity-1="ent0009" data-entity-2="ent0010" id="lnk28" data-link-type="dependency"><polygon points="509.692,491.958,504.656,483.494,505.61,489.07,500.035,490.025,509.692,491.958" fill="#17633B" style="stroke:#17633B;stroke-width:1;stroke-linejoin:miter;stroke-miterlimit:10;"/><path d="M484.33,436.301 C483.837,448.218 485.178,461.354 491,472.099 C495.331,480.092 498.145,483.787 505.61,489.07" style="stroke:#17633B;stroke-width:1;" fill="none"/><text x="493" y="468.235" fill="#000" font-size="13" textLength="29.605" font-family="'Times New Roman'">/api/*</text></g><g class="link" data-entity-1="ent0009" data-entity-2="ent0010" id="lnk29" data-link-type="dependency"><polygon points="540.144,491.841,540.84,482.016,538.441,487.139,533.318,484.741,540.144,491.841" fill="#17633B" style="stroke:#17633B;stroke-width:1;stroke-linejoin:miter;stroke-miterlimit:10;"/><path d="M513.514,436.236 C517.235,442.064 520.879,448.165 524,454.099 C530.416,466.295 534.44,476.091 538.441,487.139" style="stroke:#17633B;stroke-width:1;" fill="none"/><text x="535" y="468.235" fill="#000" font-size="13" textLength="102.546" font-family="'Times New Roman'">/uploads/products/*</text></g><g class="link" data-entity-1="ent0010" data-entity-2="ent0011" id="lnk30" data-link-type="dependency"><polygon points="582.544,566.948,580.963,557.227,579.806,562.764,574.269,561.607,582.544,566.948" fill="#17633B" style="stroke:#17633B;stroke-width:1;stroke-linejoin:miter;stroke-miterlimit:10;"/><path d="M557.24,528.277 C564.593,539.515 571.587,550.204 579.806,562.764" style="stroke:#17633B;stroke-width:1;" fill="none"/></g><g class="link" data-entity-1="ent0011" data-entity-2="ent0012" id="lnk31" data-link-type="dependency"><polygon points="610.744,655.951,612.995,646.363,609.811,651.038,605.135,647.855,610.744,655.951" fill="#17633B" style="stroke:#17633B;stroke-width:1;stroke-linejoin:miter;stroke-miterlimit:10;"/><path d="M603.829,619.53 C606.09,631.438 607.791,640.396 609.811,651.038" style="stroke:#17633B;stroke-width:1;" fill="none"/></g><g class="link" data-entity-1="ent0012" data-entity-2="ent0013" id="lnk32" data-link-type="dependency"><polygon points="627.683,729.07,629.348,719.363,626.454,724.223,621.594,721.329,627.683,729.07" fill="#17633B" style="stroke:#17633B;stroke-width:1;stroke-linejoin:miter;stroke-miterlimit:10;"/><path d="M618.357,692.286 C621.187,703.449 623.632,713.092 626.454,724.223" style="stroke:#17633B;stroke-width:1;" fill="none"/></g><g class="link" data-entity-1="ent0013" data-entity-2="ent0014" id="lnk33" data-link-type="dependency"><polygon points="437.084,851.883,446.253,848.287,440.596,848.324,440.559,842.667,437.084,851.883" fill="#17633B" style="stroke:#17633B;stroke-width:1;stroke-linejoin:miter;stroke-miterlimit:10;"/><path d="M580.658,765.132 C552.219,775.704 516.884,790.767 488,809.099 C468.884,821.231 453.44,835.31 440.596,848.324" style="stroke:#17633B;stroke-width:1;" fill="none"/></g><g class="link" data-entity-1="ent0014" data-entity-2="ent0015" id="lnk34" data-link-type="dependency"><polygon points="421,942.045,425,933.045,421,937.045,417,933.045,421,942.045" fill="#17633B" style="stroke:#17633B;stroke-width:1;stroke-linejoin:miter;stroke-miterlimit:10;"/><path d="M421,888.497 C421,903.674 421,920.752 421,937.045" style="stroke:#17633B;stroke-width:1;" fill="none"/></g><g class="link" data-entity-1="ent0013" data-entity-2="ent0016" id="lnk35" data-link-type="dependency"><polygon points="602.34,834.755,608.111,826.774,603.372,829.863,600.283,825.123,602.34,834.755" fill="#17633B" style="stroke:#17633B;stroke-width:1;stroke-linejoin:miter;stroke-miterlimit:10;"/><path d="M623.323,765.266 C620.723,770.857 618.027,777.154 616,783.099 C610.31,799.784 606.728,813.94 603.372,829.863" style="stroke:#17633B;stroke-width:1;" fill="none"/></g><g class="link" data-entity-1="ent0013" data-entity-2="ent0018" id="lnk36" data-link-type="dependency"><polygon points="957.566,852.094,959.802,842.503,956.625,847.184,951.944,844.007,957.566,852.094" fill="#17633B" style="stroke:#17633B;stroke-width:1;stroke-linejoin:miter;stroke-miterlimit:10;"/><path d="M685.641,748.374 C758.985,749.774 885.627,756.163 922,783.099 C944.3,799.613 952.8,827.208 956.625,847.184" style="stroke:#17633B;stroke-width:1;stroke-dasharray:7,7;" fill="none"/><text x="939" y="797.235" fill="#000" font-size="13" textLength="61.731" font-family="'Times New Roman'">si configuré</text></g><g class="link" data-entity-1="ent0013" data-entity-2="ent0019" id="lnk37" data-link-type="dependency"><polygon points="764.163,852.033,761.906,842.446,761.139,848.051,755.535,847.284,764.163,852.033" fill="#17633B" style="stroke:#17633B;stroke-width:1;stroke-linejoin:miter;stroke-miterlimit:10;"/><path d="M645.098,765.131 C655.071,776.941 669.808,792.106 686,801.099 C699.193,808.426 705.937,801.542 719,809.099 C737.531,819.818 750.776,834.403 761.139,848.051" style="stroke:#17633B;stroke-width:1;stroke-dasharray:7,7;" fill="none"/><text x="688" y="797.235" fill="#000" font-size="13" textLength="61.731" font-family="'Times New Roman'">si configuré</text></g><g class="link" data-entity-1="ent0013" data-entity-2="ent0020" id="lnk38" data-link-type="dependency"><polygon points="855.916,851.921,853.664,842.333,852.895,847.937,847.29,847.168,855.916,851.921" fill="#17633B" style="stroke:#17633B;stroke-width:1;stroke-linejoin:miter;stroke-miterlimit:10;"/><path d="M685.698,762.592 C706.276,768.485 729.876,775.657 751,783.099 C758.142,785.615 807.813,804.731 814,809.099 C830.715,820.898 842.907,834.771 852.895,847.937" style="stroke:#17633B;stroke-width:1;stroke-dasharray:7,7;" fill="none"/><text x="797" y="797.235" fill="#000" font-size="13" textLength="120.25" font-family="'Times New Roman'">si OPENAI_API_KEY</text></g><?plantuml-src ZLNRRkCs47tNLqoz3xriOoDmiWssm09ouknwwzYgvJGeO22WfR7CXYAr91N7AFezRTxt3_nZ7LAoLueNHVFWK3DdXdCvC_ocq2pB6GYsLQK5awDbaWMMMu4GwcJDBIQsr0YPK4j6mXG938LW5bTAvmZlJsRJgo0m3rmMJBCSbYnvoBGgPNgfXDAmSKuQUhDcgTfmcS6A2TFKfBXYfR3NIje98zUTES_Hm0GtC5Cvavq6Db5veIHA6zijXQKfJ2OpqNGNQgqsLGolJdzwq-yF6ig1qYdgMji_FU-VdJMq1UN0Cln_e1Vvlhf-StrnVVwrM8-X_gzP0cRPafbZfyCXkJrj8AMo-3L_5yEB8629fS_ERznGxKiDlOMCj385LQa3p81NABt7XMdE9JTMCuVs22yAWZf7w4pO8yzgzPy1VCa9EZ7T0KMv53o16RBwYiWBRaTjxD2GHwoyDy3--oKskWk1IsEP46mfiF9w5xP1b4d913Sko_bQ8tR_C0lv6dALxluHn9xtum48bR3ogSuSDwZxLy5VGI0LiRaJetvqrWcdInRoktJtN0Z5CNV-2qrVZ7w-Fqfxad7vj90VvlCeXjUmuZGjg0rGm9P_Aj67eV6HP5GUhPwsFW1lrlOKHYE82-r6Og2KXNxtl7jwLXKcUb6K6XTZKcfkjmlvyMvEjmykzRQmTBYSpc9lkKUqpIzfjlJkiw243So6yTnZlLG9GQ6-k8rgmnEgOhvxjfHTxRaIjg4pB9Gd5IVunoZqqAQGu7jsG-Tc6_ywzX1_8jrA2PerwDn6usbuTNyrcYqaLIqj4skW1vzAuhixf2efNMkCjxwbLh7Kk6ucGfLf8sHLMAwaH66E6NipZwfKwD1MpJTSSEMLrV6uLTC2PJZoaEheRgyd2avEtXse3s_9L1fQQPGOHOwqmoZ7e6A_GzQy9o3RZo3f3_OEiYUiS-OcB2nGx_ukWIZSmhbfUNkO5vSwoCFC1lkBQcJRr5EIZ3sLMz2Mnj4C6GK8nBcWKlaa8fT0ZnMyzyEnkAmwrDltaZ1Eun07YkuFNjeaO-DSMzJKEtJPILiiQ_7GQIk2jGpsh3a8kzrtdWiKiE6kQIkUbJJrRKH5YF_6L8oeCDDeE0b7zvJk_I_3tzs-eKMfURQse5Q7HU3__mZpSGn8J_3MMCnJCAgvVQhXaGRS2qootMSBFuEROcYjAuAY8Apy5WsP4qD9dVkPVwPFxUmJsdhT06Ngdv0wggMoLkKkh6h3tZ39L-G3VKnLWh1H-e6wxw8oRWAx11oZMxK8QqKj4ZoJxYrsTbowiH5elzprBm00?></g></svg>